<?xml version="1.0" ?><svg xmlns="http://www.w3.org/2000/svg" width="143.09789mm" height="132.43555mm" viewBox="0 0 143.09789 132.43555">
    <path d="m -204.79043,2205.1992 0.86307,-49.3014 35.19032,12.2598 c -1.13705,12.4444 -0.63841,35.0766 -0.25932,51.0653 z" fill="#999" paint-order="markers stroke fill" transform="translate(285.48965,-282.37963) matrix(1.7870809,0,0,1.7870809,83.1719,-3553.6806)"/>
    <path d="m -168.63691,2219.4113 -0.64053,-52.1444 40.82931,-8.8117 0.69543,50.5799 z" fill="#fff" paint-order="markers stroke fill" transform="translate(285.48965,-282.37963) matrix(1.7870809,0,0,1.7870809,83.1719,-3553.6806)"/>
    <path d="m -203.77463,2155.6882 36.52858,12.4185 38.56001,-10.4912 -39.27375,-10.9527 z" fill="#dcdcdc" paint-order="markers stroke fill" transform="translate(285.48965,-282.37963) matrix(1.7870809,0,0,1.7870809,83.1719,-3553.6806)"/>
    <path d="m -176.70341,2218.1302 c -15.09519,-5.2146 -28.68536,-11.014 -28.95505,-12.356 -0.206,-1.0251 -0.54887,-16.2177 -0.62988,-27.9122 -0.0588,-8.4873 0.50169,-19.6049 1.08309,-21.484 0.27862,-0.9005 1.08644,-1.38 3.25975,-1.9348 1.58916,-0.4057 5.88767,-1.56 9.55228,-2.5651 10.90133,-2.99 22.74019,-5.4586 25.52122,-5.3217 1.4311,0.071 6.04299,1.0615 10.24851,2.2022 4.20558,1.1405 12.02098,3.2279 17.36756,4.6388 5.34666,1.4107 10.16522,2.8564 10.70791,3.2124 0.58164,0.3817 1.14468,1.6224 1.37148,3.022 0.6302,3.8895 1.13551,27.5842 0.89749,42.0817 -0.14979,9.1323 0.16816,8.6433 -6.70467,10.3068 -2.25074,0.5448 -8.13161,2.1503 -13.06865,3.5678 -9.58458,2.7518 -20.84339,5.2668 -22.6421,5.0579 -0.60201,-0.07 -4.20597,-1.202 -8.00894,-2.5158 z m 21.40911,-3.9455 c 5.64117,-1.6009 13.82442,-3.7716 18.18502,-4.8239 l 7.92838,-1.9133 0.0317,-2.4271 c 0.0174,-1.335 -0.12605,-9.1177 -0.31892,-17.295 -0.19293,-8.1772 -0.33597,-17.6749 -0.31795,-21.1059 0.0314,-6.0005 -0.009,-6.23 -1.05597,-6.0258 -0.59885,0.1167 -8.22818,1.9984 -16.95408,4.1816 -8.72587,2.1832 -16.72744,4.0766 -17.78119,4.2075 -1.05373,0.1315 -2.02869,0.4134 -2.16666,0.6275 -0.13804,0.2141 -0.19724,2.9632 -0.13233,6.109 0.0652,3.1458 0.20588,10.1792 0.31262,15.6296 0.51147,26.1368 0.51397,26.182 1.42795,25.9165 0.32163,-0.093 5.20024,-1.4797 10.84142,-3.0807 z m -14.93048,0.8214 c 0.0351,-0.6789 -0.0544,-2.8741 -0.19909,-4.8781 -0.40946,-5.6713 -0.62626,-31.6048 -0.30874,-36.929 0.33778,-5.6356 0.7403,-5.1754 -6.60782,-7.5267 -10.05889,-3.2188 -24.56107,-7.6411 -25.15323,-7.6702 -0.82209,-0.041 -1.15755,6.327 -0.89589,17.0064 0.11506,4.6945 0.20693,10.8869 0.20429,13.7605 -0.004,4.9099 0.33317,15.5792 0.49992,15.7944 0.0922,0.1197 22.35203,8.4891 27.19049,10.2243 4.6989,1.685 5.19301,1.7055 5.27007,0.2184 z m 15.67425,-52.2497 c 6.65458,-1.6772 13.88142,-3.4527 16.05974,-3.9458 2.17834,-0.4932 3.97162,-1.0806 3.9851,-1.3055 0.0143,-0.225 -2.97517,-1.0857 -6.64145,-1.9127 -3.66636,-0.827 -10.95472,-2.8292 -16.19644,-4.4491 -7.83852,-2.4224 -9.81244,-2.8589 -11.11853,-2.4586 -0.87342,0.2676 -5.4918,1.2764 -10.26311,2.2417 -8.05219,1.6291 -19.07379,4.2789 -19.48971,4.6855 -0.0989,0.097 5.09945,1.8691 11.55215,3.9382 6.45275,2.0692 13.28145,4.409 15.1749,5.1998 1.89344,0.7907 3.75662,1.3517 4.14039,1.2467 0.38378,-0.1049 6.14244,-1.5632 12.79696,-3.2402 z" transform="translate(285.48965,-282.37963) matrix(1.7870809,0,0,1.7870809,83.1719,-3553.6806)"/>
</svg>